<svg width="41" height="40" viewBox="0 0 41 40" fill="none" xmlns="http://www.w3.org/2000/svg">
<g id="ion:sad-outline">
<path id="Vector" d="M14.875 20C15.9105 20 16.75 19.1605 16.75 18.125C16.75 17.0895 15.9105 16.25 14.875 16.25C13.8395 16.25 13 17.0895 13 18.125C13 19.1605 13.8395 20 14.875 20Z" fill="black"/>
<path id="Vector_2" d="M20.5001 22.5C24.0485 22.5 27.0329 24.807 27.9775 27.9555C28.004 28.0495 28.0081 28.1484 27.9895 28.2443C27.9708 28.3402 27.93 28.4304 27.8702 28.5076C27.8104 28.5849 27.7334 28.6471 27.6452 28.6892C27.5571 28.7312 27.4603 28.7521 27.3626 28.75H13.6368C13.5395 28.7515 13.4432 28.7302 13.3555 28.6878C13.2679 28.6455 13.1913 28.5832 13.132 28.506C13.0726 28.4289 13.0321 28.3389 13.0137 28.2433C12.9953 28.1477 12.9995 28.0492 13.0259 27.9555C13.9626 24.807 16.9478 22.5 20.5001 22.5Z" fill="black"/>
<path id="Vector_3" d="M26.125 20C27.1605 20 28 19.1605 28 18.125C28 17.0895 27.1605 16.25 26.125 16.25C25.0895 16.25 24.25 17.0895 24.25 18.125C24.25 19.1605 25.0895 20 26.125 20Z" fill="black"/>
<path id="Vector_4" d="M20.5 36.25C29.4746 36.25 36.75 28.9746 36.75 20C36.75 11.0254 29.4746 3.75 20.5 3.75C11.5254 3.75 4.25 11.0254 4.25 20C4.25 28.9746 11.5254 36.25 20.5 36.25Z" stroke="black" stroke-width="4" stroke-miterlimit="10"/>
</g>
</svg>
