<svg width="41" height="40" viewBox="0 0 41 40" fill="none" xmlns="http://www.w3.org/2000/svg">
<path id="Vector" d="M25.22 24.46C23.883 25.5379 22.2174 26.1258 20.5 26.1258C18.7826 26.1258 17.117 25.5379 15.78 24.46C15.3716 24.1205 14.845 23.9572 14.3162 24.006C13.7873 24.0547 13.2995 24.3116 12.96 24.72C12.6205 25.1284 12.4572 25.655 12.506 26.1838C12.5547 26.7127 12.8116 27.2005 13.22 27.54C15.2627 29.2452 17.8391 30.1793 20.5 30.1793C23.1609 30.1793 25.7373 29.2452 27.78 27.54C28.1884 27.2005 28.4453 26.7127 28.494 26.1838C28.5428 25.655 28.3795 25.1284 28.04 24.72C27.8719 24.5178 27.6656 24.3506 27.4329 24.2281C27.2003 24.1056 26.9457 24.0301 26.6839 24.006C26.155 23.9572 25.6284 24.1205 25.22 24.46ZM14.5 18C14.8956 18 15.2822 17.8827 15.6111 17.6629C15.94 17.4432 16.1964 17.1308 16.3478 16.7654C16.4991 16.3999 16.5387 15.9978 16.4616 15.6098C16.3844 15.2219 16.1939 14.8655 15.9142 14.5858C15.6345 14.3061 15.2781 14.1156 14.8902 14.0384C14.5022 13.9613 14.1001 14.0009 13.7346 14.1522C13.3692 14.3036 13.0568 14.56 12.8371 14.8889C12.6173 15.2178 12.5 15.6044 12.5 16C12.5 16.5304 12.7107 17.0391 13.0858 17.4142C13.4609 17.7893 13.9696 18 14.5 18ZM26.5 14C26.1044 14 25.7178 14.1173 25.3889 14.3371C25.06 14.5568 24.8036 14.8692 24.6522 15.2346C24.5009 15.6001 24.4613 16.0022 24.5384 16.3902C24.6156 16.7781 24.8061 17.1345 25.0858 17.4142C25.3655 17.6939 25.7219 17.8844 26.1098 17.9616C26.4978 18.0387 26.8999 17.9991 27.2654 17.8478C27.6308 17.6964 27.9432 17.44 28.1629 17.1111C28.3827 16.7822 28.5 16.3956 28.5 16C28.5 15.4696 28.2893 14.9609 27.9142 14.5858C27.5391 14.2107 27.0304 14 26.5 14ZM20.5 0C16.5444 0 12.6776 1.17298 9.3886 3.37061C6.09962 5.56823 3.53617 8.69181 2.02242 12.3463C0.508666 16.0008 0.112599 20.0222 0.884303 23.9018C1.65601 27.7814 3.56082 31.3451 6.35787 34.1421C9.15492 36.9392 12.7186 38.844 16.5982 39.6157C20.4778 40.3874 24.4992 39.9913 28.1537 38.4776C31.8082 36.9638 34.9318 34.4004 37.1294 31.1114C39.327 27.8224 40.5 23.9556 40.5 20C40.5 17.3736 39.9827 14.7728 38.9776 12.3463C37.9725 9.91982 36.4993 7.71503 34.6421 5.85786C32.785 4.00069 30.5802 2.5275 28.1537 1.52241C25.7272 0.517315 23.1264 0 20.5 0ZM20.5 36C17.3355 36 14.2421 35.0616 11.6109 33.3035C8.9797 31.5454 6.92894 29.0465 5.71794 26.1229C4.50693 23.1993 4.19008 19.9822 4.80744 16.8785C5.42481 13.7749 6.94866 10.9239 9.1863 8.68629C11.4239 6.44865 14.2749 4.9248 17.3786 4.30743C20.4823 3.69007 23.6993 4.00692 26.6229 5.21793C29.5466 6.42893 32.0454 8.47969 33.8035 11.1109C35.5616 13.7421 36.5 16.8355 36.5 20C36.5 24.2435 34.8143 28.3131 31.8137 31.3137C28.8131 34.3143 24.7435 36 20.5 36Z" fill="black"/>
</svg>
